<?xml version="1.0" standalone="no"?>
<!DOCTYPE svg PUBLIC "-//W3C//DTD SVG 20010904//EN"
 "http://www.w3.org/TR/2001/REC-SVG-20010904/DTD/svg10.dtd">
<svg version="1.0" xmlns="http://www.w3.org/2000/svg"
 width="512.000000pt" height="512.000000pt" viewBox="0 0 512.000000 512.000000"
 preserveAspectRatio="xMidYMid meet">

<g transform="translate(0.000000,512.000000) scale(0.100000,-0.100000)"
fill="#7c3aed" stroke="none">
<path d="M2377 5110 c-843 -65 -1591 -529 -2020 -1254 -326 -551 -431 -1221
-291 -1856 170 -769 714 -1439 1436 -1767 501 -228 1075 -287 1618 -167 864
191 1585 844 1865 1688 145 437 169 916 69 1366 -232 1040 -1108 1839 -2164
1974 -151 19 -378 26 -513 16z m498 -265 c503 -72 960 -299 1315 -655 358
-357 576 -797 656 -1320 24 -157 24 -461 0 -625 -139 -939 -810 -1688 -1720
-1920 -205 -52 -343 -69 -566 -68 -368 0 -691 74 -1015 233 -700 343 -1170
1003 -1276 1790 -7 52 -13 178 -13 280 0 273 34 483 120 740 192 575 616 1058
1169 1330 269 132 516 199 870 234 74 7 359 -4 460 -19z"/>
<path d="M2109 3557 c-45 -30 -66 -85 -51 -135 10 -33 78 -96 481 -447 258
-226 470 -412 470 -415 0 -3 -212 -189 -470 -415 -403 -351 -471 -414 -481
-447 -28 -95 70 -185 164 -149 30 11 1083 933 1091 956 9 22 9 88 0 110 -8 23
-1061 945 -1091 956 -39 15 -77 10 -113 -14z"/>
</g>
</svg>
