<?xml version="1.0" standalone="no"?>
<!DOCTYPE svg PUBLIC "-//W3C//DTD SVG 20010904//EN"
 "http://www.w3.org/TR/2001/REC-SVG-20010904/DTD/svg10.dtd">
<svg version="1.0" xmlns="http://www.w3.org/2000/svg"
 width="512.000000pt" height="512.000000pt" viewBox="0 0 512.000000 512.000000"
 preserveAspectRatio="xMidYMid meet">

<g transform="translate(0.000000,512.000000) scale(0.100000,-0.100000)"
fill="#7c3aed" stroke="none">
<path d="M523 5099 c-114 -19 -265 -101 -343 -185 -63 -69 -118 -160 -148
-248 l-27 -81 0 -2025 0 -2025 27 -81 c29 -83 79 -171 138 -237 43 -50 143
-121 213 -151 126 -56 121 -56 1199 -56 662 0 1006 4 1031 11 49 13 105 63
128 114 45 98 5 218 -90 267 l-53 28 -992 0 c-673 0 -1003 4 -1030 11 -21 6
-58 29 -82 51 -80 74 -74 -94 -74 2068 0 2162 -6 1994 74 2068 24 22 61 45 82
51 27 7 357 11 1029 11 943 0 992 1 1030 19 78 36 125 107 125 191 0 88 -66
177 -147 199 -47 13 -2012 13 -2090 0z"/>
<path d="M3556 4036 c-104 -28 -167 -137 -145 -249 10 -52 14 -56 497 -534
l487 -483 -1277 -2 -1276 -3 -44 -30 c-143 -101 -114 -318 51 -374 25 -8 378
-11 1290 -11 l1256 0 -487 -483 c-483 -478 -487 -482 -497 -534 -31 -155 98
-284 251 -252 61 13 65 17 841 783 343 338 577 577 590 601 28 54 28 136 0
190 -12 22 -120 137 -240 255 -120 119 -419 414 -664 656 -246 242 -462 447
-480 456 -52 24 -99 28 -153 14z"/>
</g>
</svg>
